<svg width="246" height="177" viewBox="0 0 246 177" fill="none" xmlns="http://www.w3.org/2000/svg">
<path d="M225.183 12.4854H16.5713V152.995H225.183V12.4854Z" fill="#FFB961"/>
<g opacity="0.3">
<path d="M182.213 152.978H60.9805V58.1547C101.033 45.9824 141.449 46.0839 182.213 58.1547V152.978Z" fill="black"/>
</g>
<path d="M242.811 6.37797H3.18899C2.34322 6.37797 1.53208 6.042 0.934027 5.44395C0.335977 4.8459 0 4.03476 0 3.18899C0 2.34322 0.335977 1.53209 0.934027 0.93404C1.53208 0.33599 2.34322 0 3.18899 0H242.811C243.657 0 244.468 0.33599 245.066 0.93404C245.664 1.53209 246 2.34322 246 3.18899C246 4.03476 245.664 4.8459 245.066 5.44395C244.468 6.042 243.657 6.37797 242.811 6.37797Z" fill="#FFB961"/>
<path d="M233.642 12.4851H10.1594C9.31134 12.4851 8.49806 12.1482 7.89842 11.5486C7.29878 10.9489 6.96191 10.1356 6.96191 9.28763C6.96191 8.86813 7.04468 8.45275 7.20547 8.0653C7.36626 7.67784 7.60191 7.32591 7.89894 7.02968C8.19596 6.73344 8.54851 6.49873 8.93639 6.33896C9.32427 6.1792 9.73986 6.09753 10.1594 6.09864H233.642C234.061 6.09753 234.477 6.1792 234.865 6.33896C235.253 6.49873 235.605 6.73344 235.902 7.02968C236.199 7.32591 236.435 7.67784 236.596 8.0653C236.757 8.45275 236.839 8.86813 236.839 9.28763C236.839 10.1356 236.502 10.9489 235.903 11.5486C235.303 12.1482 234.49 12.4851 233.642 12.4851Z" fill="#FFB961"/>
<g opacity="0.4">
<path d="M233.644 12.4853H10.1613C9.31329 12.4853 8.50001 12.1484 7.90037 11.5488C7.30074 10.9492 6.96387 10.1359 6.96387 9.28787C6.96387 8.86838 7.04664 8.453 7.20743 8.06554C7.36822 7.67808 7.60387 7.32616 7.90089 7.02992C8.19791 6.73369 8.55046 6.49897 8.93834 6.33921C9.32622 6.17944 9.74181 6.09778 10.1613 6.09889H233.644C234.063 6.09778 234.479 6.17944 234.867 6.33921C235.255 6.49897 235.607 6.73369 235.904 7.02992C236.201 7.32616 236.437 7.67808 236.598 8.06554C236.759 8.453 236.841 8.86838 236.841 9.28787C236.841 10.1359 236.504 10.9492 235.905 11.5488C235.305 12.1484 234.492 12.4853 233.644 12.4853Z" fill="white"/>
</g>
<path d="M226.714 31.2981H15.6486C15.2291 31.2992 14.8135 31.2176 14.4256 31.0578C14.0378 30.8981 13.6852 30.6633 13.3882 30.3671C13.0912 30.0709 12.8555 29.7189 12.6947 29.3315C12.5339 28.944 12.4512 28.5287 12.4512 28.1092C12.4512 27.6897 12.5339 27.2743 12.6947 26.8868C12.8555 26.4994 13.0912 26.1474 13.3882 25.8512C13.6852 25.555 14.0378 25.3203 14.4256 25.1605C14.8135 25.0007 15.2291 24.9191 15.6486 24.9202H226.714C227.559 24.9202 228.37 25.2562 228.969 25.8542C229.567 26.4523 229.903 27.2634 229.903 28.1092C229.903 28.9549 229.567 29.7661 228.969 30.3641C228.37 30.9622 227.559 31.2981 226.714 31.2981Z" fill="#FFB961"/>
<g opacity="0.3">
<path d="M174.084 152.978H68.2812V69.7517C103.233 61.6904 138.49 61.8257 174.084 69.7517V152.978Z" fill="black"/>
</g>
<g opacity="0.3">
<path d="M24.1499 141.991V41.4065H48.6297V39.4355H22.585V141.686L24.1499 141.991Z" fill="black"/>
</g>
<g opacity="0.3">
<path d="M195.922 141.838V41.2536H220.393V39.2827H194.349V141.525L195.922 141.838Z" fill="black"/>
</g>
<g opacity="0.6">
<path d="M49.4758 142.532H21.7393V38.5894H49.4758V142.532ZM23.431 140.84H47.784V40.2811H23.431V140.84Z" fill="white"/>
</g>
<g opacity="0.6">
<path d="M221.952 142.532H192.803V38.5896H221.952V142.532ZM194.495 140.84H220.26V40.2814H194.495V140.84Z" fill="white"/>
</g>
<g opacity="0.5">
<path d="M219.482 22.78H20.3184V15.8691H219.482V22.78ZM22.0101 21.0882H217.79V17.5609H22.0101V21.0882Z" fill="white"/>
</g>
<path d="M142.209 148.411C142.336 144.351 145.593 139.47 145.474 135.41C145.474 133.599 144.629 131.831 144.891 130.038C144.933 129.759 145.026 129.438 145.297 129.336C145.567 129.235 145.957 129.505 146.185 129.767C147.623 131.459 149.052 133.109 150.414 134.8C151.474 135.902 152.264 137.234 152.724 138.692C153.282 141.119 151.878 143.674 149.932 145.196C147.987 146.719 144.586 147.819 142.167 148.411" fill="#FFB961"/>
<path d="M128.557 111.978C128.557 111.978 125.893 117.705 132.93 120.649C139.968 123.592 141.296 127.517 139.96 132.263L138.826 134.225C138.826 134.225 138.065 128.828 136.348 131.281C134.631 133.735 136.728 135.367 138.251 137.203C139.774 139.038 139.774 143.75 137.304 146.364C134.834 148.977 115.818 152.09 111.445 148.977C107.072 145.865 103.832 145.873 103.46 138.184C103.088 130.495 106.31 129.514 105.744 122.645C105.177 115.776 103.079 114.135 105.549 109.069C108.019 104.002 118.102 94.5024 120.377 92.54C120.709 92.2034 121.116 91.951 121.565 91.8038C122.014 91.6567 122.491 91.6191 122.957 91.6941C123.131 91.7306 123.295 91.8055 123.436 91.9132C123.577 92.021 123.693 92.159 123.774 92.3171C123.855 92.4752 123.899 92.6494 123.905 92.827C123.91 93.0046 123.875 93.1811 123.803 93.3436C122.797 95.6782 120.293 101.912 119.844 107.123C119.557 110.456 121.697 114.584 124.979 113.831C128.261 113.078 128.557 111.978 128.557 111.978Z" fill="#FFB961"/>
<path d="M129.14 87.7013C129.14 87.7013 126.814 88.8433 127.254 90.1798C127.693 91.5163 129.698 95.8218 129.698 98.6894V103.917C130.821 100.719 131.64 97.4225 132.143 94.0708C132.583 89.9006 130.502 86.7286 129.14 87.7013Z" fill="#FFB961"/>
<path d="M118.129 88.421C118.129 88.421 116.877 82.2715 118.662 77.8052C120.447 73.3389 120.81 71.1904 120.277 69.3464C119.745 67.5023 120.506 66.7241 120.506 66.7241C120.506 66.7241 124.735 69.1856 125.107 73.3474C125.48 77.5091 122.959 78.2704 121.259 81.3495C120.055 83.6326 119.01 85.9953 118.129 88.421Z" fill="#FFB961"/>
<path d="M134.217 84.665H133.955C133.747 84.6604 133.542 84.7206 133.369 84.8373C133.197 84.9539 133.064 85.1213 132.991 85.3164C132.921 85.4399 132.889 85.5809 132.898 85.7224C132.898 85.8154 132.898 85.9085 132.94 86.0016C132.986 86.1785 133.08 86.3394 133.211 86.4668L133.422 86.636C133.585 86.7288 133.768 86.7783 133.955 86.7798H134.217C134.358 86.7831 134.498 86.7511 134.623 86.6867C134.75 86.6379 134.866 86.5629 134.962 86.4668C135.058 86.3706 135.133 86.2553 135.182 86.1284C135.246 86.003 135.278 85.8634 135.275 85.7224L135.233 85.4348C135.185 85.2587 135.091 85.0982 134.962 84.9696L134.75 84.8089C134.59 84.7122 134.405 84.6624 134.217 84.665Z" fill="#FFB961"/>
<path d="M97.514 105.076V105.296C97.5055 105.44 97.5378 105.584 97.6071 105.711C97.6474 105.842 97.7236 105.959 97.827 106.049C97.9179 106.151 98.0348 106.227 98.1653 106.269C98.2901 106.335 98.4308 106.364 98.5714 106.354H98.8505C99.026 106.304 99.1862 106.211 99.3158 106.083L99.4849 105.871C99.5788 105.706 99.6283 105.52 99.6287 105.33V105.11C99.6365 104.969 99.6043 104.828 99.5357 104.704C99.4953 104.573 99.4192 104.456 99.3158 104.366C99.2248 104.263 99.1079 104.187 98.9774 104.146C98.8519 104.081 98.7124 104.049 98.5714 104.053L98.2922 104.095C98.1153 104.141 97.9544 104.235 97.827 104.366L97.6578 104.577C97.565 104.74 97.5155 104.923 97.514 105.11V105.076Z" fill="#FFB961"/>
<path d="M110.473 87.1345C110.601 87.1182 110.72 87.0555 110.806 86.9582C110.891 86.8608 110.939 86.7356 110.939 86.6058C110.939 86.4761 110.891 86.3508 110.806 86.2535C110.72 86.1562 110.601 86.0935 110.473 86.0771C110.344 86.0935 110.226 86.1562 110.14 86.2535C110.054 86.3508 110.007 86.4761 110.007 86.6058C110.007 86.7356 110.054 86.8608 110.14 86.9582C110.226 87.0555 110.344 87.1182 110.473 87.1345Z" fill="#FFB961"/>
<path d="M139.174 111.217H139.436C139.507 111.225 139.578 111.211 139.639 111.175C139.703 111.152 139.761 111.114 139.809 111.065C139.86 111.02 139.898 110.961 139.919 110.896C139.953 110.834 139.967 110.763 139.961 110.693V110.549C139.938 110.462 139.891 110.383 139.826 110.321L139.724 110.236C139.642 110.186 139.549 110.16 139.453 110.16H139.191C139.12 110.161 139.051 110.178 138.988 110.211C138.922 110.23 138.863 110.268 138.819 110.321C138.768 110.366 138.73 110.425 138.709 110.49C138.677 110.553 138.663 110.623 138.667 110.693V110.828C138.69 110.918 138.736 111 138.802 111.065L138.912 111.15C138.993 111.193 139.083 111.216 139.174 111.217Z" fill="#FFB961"/>
<path d="M134.463 76.104L134.717 75.8841C134.768 75.8389 134.806 75.7804 134.826 75.7149C134.859 75.6522 134.877 75.5826 134.877 75.5119C134.878 75.441 134.861 75.371 134.826 75.3089C134.808 75.2424 134.77 75.1832 134.717 75.1397L134.615 75.0551C134.533 75.0056 134.44 74.9793 134.344 74.979H134.201C134.114 75.0072 134.035 75.0566 133.972 75.1228L133.71 75.3427C133.661 75.39 133.623 75.4479 133.6 75.5119C133.572 75.5759 133.558 75.6451 133.558 75.7149C133.558 75.7848 133.572 75.8539 133.6 75.9179C133.621 75.983 133.659 76.0414 133.71 76.0871L133.82 76.1717C133.899 76.221 133.989 76.2473 134.082 76.2478H134.226C134.316 76.2248 134.397 76.178 134.463 76.1125V76.104Z" fill="#FFB961"/>
<path d="M116.638 67.0957L116.901 66.8758C116.95 66.8285 116.987 66.7706 117.011 66.7066C117.038 66.6426 117.053 66.5735 117.053 66.5036C117.053 66.4337 117.038 66.3646 117.011 66.3006C116.989 66.2355 116.951 66.1772 116.901 66.1314L116.791 66.0468C116.712 65.9976 116.621 65.9712 116.528 65.9707H116.385C116.295 65.9938 116.213 66.0405 116.148 66.106L115.894 66.326C115.842 66.3712 115.804 66.4297 115.784 66.4951C115.75 66.5571 115.735 66.6278 115.742 66.6982C115.744 66.8368 115.799 66.9695 115.894 67.0704L115.995 67.1549C116.077 67.2045 116.171 67.2308 116.266 67.2311H116.41C116.497 67.2029 116.575 67.1534 116.638 67.0873V67.0957Z" fill="#FFB961"/>
<path d="M97.0752 132.246C95.0451 131.502 94.8336 129.48 95.4934 127.416C96.0263 125.767 97.5743 124.269 97.109 122.594C96.6945 121.08 94.9013 120.497 93.7255 119.499C92.8959 118.813 92.3109 117.878 92.0582 116.832C91.8054 115.786 91.8985 114.687 92.3236 113.698C92.7487 112.71 93.4828 111.886 94.4157 111.35C95.3487 110.815 96.4303 110.596 97.4981 110.727C97.8788 111.192 97.5996 111.919 97.1682 112.351C96.6828 112.714 96.2401 113.131 95.8487 113.594C95.172 114.694 95.9586 116.132 96.9229 116.978C97.8872 117.824 99.1222 118.492 99.6551 119.659C100.306 121.097 99.6551 122.806 98.8093 124.117C97.9634 125.428 96.7368 126.562 96.1447 128.025C95.5526 129.488 95.7471 131.476 97.1344 132.254" fill="#FFB961"/>
<g opacity="0.2">
<path d="M133.559 140.163C133.136 137.964 131.157 136.179 131.123 133.946C131.123 131.349 133.728 128.82 132.569 126.477C131.537 124.405 128.196 124.21 127.215 122.104C126.648 120.886 126.944 119.143 125.751 118.467C124.838 117.951 123.713 118.467 122.672 118.619C119.712 119.084 117.022 116.436 116.362 113.603C115.702 110.769 116.481 107.834 117.09 104.983C117.24 104.475 117.26 103.937 117.149 103.418C117.078 103.158 116.919 102.93 116.697 102.776C116.476 102.621 116.208 102.549 115.939 102.572C115.628 102.661 115.349 102.837 115.136 103.08C112.801 105.288 110.373 107.639 109.468 110.693C108.504 113.916 107.878 116.42 108.986 119.6C110.094 122.781 111.244 124.811 111.058 128.16C110.923 130.52 109.206 132.39 108.521 134.691C107.617 137.597 107.813 140.733 109.071 143.505C109.993 145.679 115.034 149.688 117.394 150.272L121.936 150.136C124.043 149.333 129.38 147.455 131.089 146.009C132.798 144.562 133.973 142.32 133.559 140.163Z" fill="white"/>
</g>
<g opacity="0.2">
<path d="M119.946 150.187C122.704 148.427 124.176 142.616 123.821 138.979C123.465 135.342 122.129 131.89 120.801 128.498L118.771 123.347C118.475 122.594 117.984 121.706 117.172 121.74C116.554 121.74 116.115 122.357 115.886 122.932C115.04 125.182 115.996 127.686 116.106 130.097C116.216 132.804 115.201 135.435 115.125 138.141C114.99 142.718 116.419 149.239 119.946 150.187Z" fill="white"/>
</g>
<mask id="mask0_23_4596" style="mask-type:luminance" maskUnits="userSpaceOnUse" x="103" y="91" width="38" height="60">
<path d="M128.561 111.978C128.561 111.978 125.896 117.704 132.934 120.648C139.972 123.592 141.3 127.517 139.964 132.262L138.83 134.224C138.83 134.224 138.069 128.828 136.352 131.281C134.634 133.734 136.732 135.366 138.255 137.202C139.777 139.037 139.777 143.749 137.307 146.363C134.837 148.977 115.822 152.089 111.449 148.977C107.076 145.864 103.836 145.872 103.464 138.183C103.091 130.494 106.314 129.513 105.748 122.644C105.181 115.776 103.083 114.135 105.553 109.068C108.023 104.001 118.106 94.5017 120.381 92.5392C120.715 92.1963 121.128 91.9401 121.583 91.7927C122.039 91.6453 122.523 91.6112 122.995 91.6933C123.161 91.7346 123.315 91.8114 123.448 91.9184C123.581 92.0253 123.689 92.16 123.765 92.3129C123.84 92.4658 123.882 92.6333 123.886 92.8039C123.891 92.9745 123.858 93.1439 123.79 93.3005C122.792 95.6183 120.263 101.878 119.815 107.114C119.527 110.447 121.667 114.575 124.949 113.822C128.231 113.069 128.561 111.978 128.561 111.978Z" fill="white"/>
</mask>
<g mask="url(#mask0_23_4596)">
<g opacity="0.3">
<path d="M109.411 148.748C107.025 145.898 104.505 142.675 104.623 138.962C104.691 136.695 105.756 134.597 106.467 132.44C107.601 129.003 107.871 125.339 107.254 121.773C106.788 119.117 105.833 116.529 105.773 113.83C105.689 109.779 107.677 105.913 110.4 102.91C112.938 100.093 117.523 96.8873 120.872 94.6626C120.912 94.6372 120.959 94.6251 121.005 94.6282C121.052 94.6312 121.097 94.6491 121.133 94.6794C121.169 94.7097 121.194 94.7507 121.205 94.7963C121.216 94.842 121.212 94.89 121.194 94.9333C119.991 97.605 119.121 100.415 118.605 103.299C118.242 105.981 117.506 110.794 118.69 113.23C120.111 116.157 125.144 113.56 126.853 114.828C127.986 115.674 127.462 118.212 128.604 119.058C130.981 120.846 133.449 122.512 135.997 124.049C137.081 124.732 137.942 125.717 138.475 126.882C140.412 131.196 136.242 127.576 135.278 130.697C133.814 135.46 138.188 140.848 135.98 145.306C135.54 146.211 134.83 146.997 134.821 148.063C134.806 148.349 134.878 148.632 135.03 148.874C135.181 149.116 135.404 149.306 135.667 149.417C136.564 149.764 137.359 148.918 137.858 148.173C140.641 144.181 143.153 139.909 144.337 135.197C145.521 130.486 145.242 125.233 142.713 121.08C140.691 117.764 137.452 115.421 134.466 112.942C131.48 110.464 128.545 107.571 127.546 103.815C126.548 100.059 127.623 96.0752 125.965 92.4295C125.395 91.0791 124.338 89.9922 123.004 89.3843C120.323 88.2424 118.115 89.9087 116.237 91.4905C111.94 95.0433 107.668 98.7652 104.674 103.477C101.679 108.188 100.055 114.067 101.595 119.43C102.491 122.534 104.386 125.351 104.674 128.591C104.995 132.211 101.95 134.25 101.73 137.896C101.451 142.362 105.004 148.351 108.751 150.804" fill="black"/>
</g>
</g>
<mask id="mask1_23_4596" style="mask-type:luminance" maskUnits="userSpaceOnUse" x="127" y="87" width="6" height="17">
<path d="M129.141 87.7013C129.141 87.7013 126.815 88.8433 127.255 90.1798C127.694 91.5163 129.699 95.8218 129.699 98.6894V103.917C130.822 100.719 131.641 97.4225 132.144 94.0708C132.584 89.9006 130.503 86.7286 129.141 87.7013Z" fill="white"/>
</mask>
<g mask="url(#mask1_23_4596)">
<g opacity="0.3">
<path d="M129.003 99.6113C129.501 97.9656 129.588 96.2231 129.257 94.536C129.088 93.6901 129.113 90.4419 129.697 89.799C130.027 89.4353 131.203 91.6007 131.609 92.4212C135.364 100.034 133.233 93.3433 133.157 91.9391L133.529 91.2201L131.27 87.0414L128.369 86.6016L125.138 88.8855L127.202 92.675L129.003 99.6113Z" fill="black"/>
</g>
</g>
<path d="M120.92 148.622C119.504 143.748 118.962 138.662 119.322 133.599C120.74 138.366 121.143 143.377 120.506 148.309" fill="white"/>
<path d="M103.969 122.535H68.3408V123.863H103.969V122.535Z" fill="#263238"/>
<path d="M103.959 147.768H68.457V149.096H103.959V147.768Z" fill="#263238"/>
<path d="M72.9736 123.195V148.225H74.3017V123.195H72.9736Z" fill="#263238"/>
<path d="M98.1826 123.195V148.225H99.5107V123.195H98.1826Z" fill="#263238"/>
<path d="M72.0699 148.715H70.8096V151.049H72.0699V148.715Z" fill="#263238"/>
<path d="M86.9743 148.715H85.7139V151.049H86.9743V148.715Z" fill="#263238"/>
<path d="M101.625 148.715H100.364V151.049H101.625V148.715Z" fill="#263238"/>
<path d="M73.6445 129.099H68.3408V130.402H73.6445V129.099Z" fill="#263238"/>
<path d="M104.805 129.099H98.6475V130.402H104.805V129.099Z" fill="#263238"/>
<path d="M104.137 141.187H98.6475V142.489H104.137V141.187Z" fill="#263238"/>
<path d="M73.6445 141.483H68.3408V142.785H73.6445V141.483Z" fill="#263238"/>
<path d="M86.2125 149.273C85.9894 149.27 85.7765 149.179 85.6204 149.019L73.2789 136.331C73.1239 136.173 73.0371 135.961 73.0371 135.739C73.0371 135.518 73.1239 135.305 73.2789 135.147L85.6204 122.636C85.6997 122.555 85.7945 122.491 85.8991 122.448C86.0037 122.404 86.1161 122.382 86.2294 122.383C86.3413 122.383 86.452 122.406 86.5551 122.449C86.6582 122.493 86.7516 122.556 86.83 122.636L99.4759 135.595C99.6312 135.756 99.7163 135.972 99.7128 136.196C99.7096 136.419 99.6184 136.632 99.459 136.788L86.8131 149.07C86.6468 149.213 86.4314 149.286 86.2125 149.273ZM75.0468 135.739L86.2294 147.26L97.6488 136.162L86.204 124.43L75.0468 135.739Z" fill="#263238"/>
<path d="M90.391 140.907H82.0422C81.8178 140.907 81.6027 140.818 81.4441 140.659C81.2854 140.501 81.1963 140.286 81.1963 140.061V131.704C81.1963 131.48 81.2854 131.265 81.4441 131.106C81.6027 130.947 81.8178 130.858 82.0422 130.858H90.391C90.6154 130.858 90.8306 130.947 90.9892 131.106C91.1478 131.265 91.2369 131.48 91.2369 131.704V140.061C91.2369 140.286 91.1478 140.501 90.9892 140.659C90.8306 140.818 90.6154 140.907 90.391 140.907ZM82.8881 139.215H89.5452V132.55H82.8881V139.215Z" fill="#263238"/>
<path d="M90.3906 132.55C90.2705 132.55 90.1518 132.524 90.0425 132.474C89.9331 132.425 89.8355 132.352 89.7562 132.262C89.6084 132.094 89.5333 131.874 89.5476 131.65C89.5619 131.426 89.6643 131.218 89.8324 131.069L92.0486 129.115C92.2169 128.968 92.4371 128.892 92.6607 128.907C92.8843 128.921 93.0931 129.023 93.2413 129.192C93.3891 129.36 93.4642 129.58 93.4499 129.804C93.4356 130.027 93.3332 130.236 93.1651 130.384L90.9489 132.338C90.7947 132.474 90.5962 132.549 90.3906 132.55Z" fill="#263238"/>
<path d="M82.0418 132.55C81.9203 132.551 81.8 132.526 81.689 132.476C81.5781 132.427 81.4792 132.354 81.399 132.263L79.4196 129.987C79.2715 129.818 79.1968 129.596 79.2119 129.372C79.2269 129.148 79.3306 128.938 79.4999 128.79C79.6693 128.642 79.8906 128.567 80.1151 128.582C80.3395 128.598 80.5488 128.701 80.6969 128.871L82.6762 131.154C82.8241 131.323 82.8991 131.543 82.8849 131.767C82.8706 131.99 82.7682 132.199 82.6001 132.347C82.4447 132.48 82.2463 132.552 82.0418 132.55Z" fill="#263238"/>
<path d="M80.0982 142.98C79.9322 142.981 79.7695 142.933 79.6305 142.842C79.4915 142.752 79.3823 142.622 79.3164 142.469C79.2506 142.317 79.2311 142.149 79.2603 141.985C79.2895 141.822 79.3661 141.671 79.4807 141.55L81.4432 139.444C81.5968 139.28 81.8093 139.184 82.0337 139.177C82.2582 139.17 82.4763 139.252 82.6401 139.406C82.8039 139.56 82.8999 139.772 82.907 139.997C82.9141 140.221 82.8318 140.439 82.6781 140.603L80.7326 142.675C80.6549 142.769 80.5581 142.844 80.4486 142.897C80.3391 142.949 80.2196 142.978 80.0982 142.98Z" fill="#263238"/>
<path d="M92.6066 143.056C92.3859 143.057 92.1734 142.972 92.0145 142.819L89.8067 140.662C89.6656 140.502 89.5899 140.295 89.595 140.082C89.6 139.869 89.6854 139.665 89.8341 139.512C89.9827 139.359 90.1836 139.268 90.3965 139.257C90.6095 139.246 90.8188 139.316 90.9825 139.452L93.1987 141.609C93.3175 141.727 93.3987 141.878 93.432 142.042C93.4653 142.206 93.4493 142.376 93.3859 142.531C93.3225 142.685 93.2147 142.818 93.076 142.911C92.9372 143.005 92.7739 143.055 92.6066 143.056Z" fill="#263238"/>
<path d="M139.309 122.535H103.681V123.863H139.309V122.535Z" fill="#263238"/>
<path d="M139.3 147.768H103.798V149.096H139.3V147.768Z" fill="#263238"/>
<path d="M108.314 123.195V148.225H109.642V123.195H108.314Z" fill="#263238"/>
<path d="M133.531 123.195V148.225H134.859V123.195H133.531Z" fill="#263238"/>
<path d="M107.419 148.715H106.158V151.049H107.419V148.715Z" fill="#263238"/>
<path d="M122.323 148.715H121.062V151.049H122.323V148.715Z" fill="#263238"/>
<path d="M136.966 148.715H135.706V151.049H136.966V148.715Z" fill="#263238"/>
<path d="M108.984 129.099H103.681V130.402H108.984V129.099Z" fill="#263238"/>
<path d="M138.495 129.099H133.986V130.402H138.495V129.099Z" fill="#263238"/>
<path d="M138.495 141.187H133.986V142.489H138.495V141.187Z" fill="#263238"/>
<path d="M108.984 141.187H103.681V142.489H108.984V141.187Z" fill="#263238"/>
<path d="M121.554 149.273C121.442 149.273 121.331 149.25 121.228 149.207C121.125 149.163 121.032 149.099 120.953 149.019L108.612 136.331C108.457 136.173 108.37 135.961 108.37 135.739C108.37 135.518 108.457 135.305 108.612 135.147L120.953 122.636C121.032 122.556 121.125 122.493 121.228 122.449C121.331 122.406 121.442 122.383 121.554 122.383C121.667 122.382 121.78 122.404 121.884 122.448C121.989 122.491 122.084 122.555 122.163 122.636L134.8 135.595C134.88 135.673 134.942 135.767 134.983 135.87C135.023 135.974 135.042 136.085 135.037 136.196C135.034 136.419 134.943 136.632 134.784 136.788L122.146 149.07C121.982 149.211 121.77 149.284 121.554 149.273ZM110.397 135.739L121.571 147.26L133.041 136.137L121.596 124.404L110.397 135.739Z" fill="#263238"/>
<path d="M125.742 140.907H117.385C117.161 140.907 116.945 140.818 116.787 140.659C116.628 140.501 116.539 140.286 116.539 140.061V131.704C116.539 131.48 116.628 131.265 116.787 131.106C116.945 130.947 117.161 130.858 117.385 130.858H125.742C125.967 130.858 126.182 130.947 126.34 131.106C126.499 131.265 126.588 131.48 126.588 131.704V140.061C126.588 140.286 126.499 140.501 126.34 140.659C126.182 140.818 125.967 140.907 125.742 140.907ZM118.231 139.215H124.896V132.55H118.231V139.215Z" fill="#263238"/>
<path d="M125.74 132.55C125.62 132.55 125.501 132.524 125.392 132.475C125.283 132.425 125.185 132.353 125.106 132.263C124.958 132.094 124.883 131.874 124.897 131.651C124.912 131.427 125.014 131.218 125.182 131.07L127.39 129.116C127.473 129.042 127.57 128.985 127.675 128.949C127.781 128.913 127.892 128.897 128.003 128.904C128.114 128.911 128.223 128.939 128.323 128.988C128.423 129.037 128.513 129.105 128.587 129.188C128.661 129.271 128.717 129.368 128.754 129.474C128.79 129.579 128.805 129.69 128.799 129.801C128.792 129.912 128.763 130.021 128.715 130.121C128.666 130.221 128.598 130.311 128.515 130.385L126.273 132.339C126.126 132.469 125.937 132.544 125.74 132.55Z" fill="#263238"/>
<path d="M117.384 132.55C117.264 132.55 117.145 132.524 117.036 132.475C116.926 132.425 116.829 132.353 116.75 132.263L114.77 129.987C114.622 129.818 114.547 129.596 114.562 129.372C114.578 129.148 114.681 128.938 114.851 128.79C115.02 128.642 115.241 128.567 115.466 128.582C115.69 128.598 115.899 128.701 116.047 128.871L118.027 131.154C118.174 131.324 118.247 131.545 118.231 131.768C118.216 131.992 118.112 132.2 117.942 132.347C117.787 132.48 117.588 132.552 117.384 132.55Z" fill="#263238"/>
<path d="M115.447 142.98C115.231 142.981 115.022 142.9 114.863 142.752C114.784 142.673 114.721 142.579 114.678 142.476C114.635 142.373 114.613 142.263 114.613 142.151C114.613 142.039 114.635 141.929 114.678 141.826C114.721 141.723 114.784 141.629 114.863 141.55L116.809 139.478C116.883 139.388 116.974 139.314 117.077 139.261C117.181 139.208 117.294 139.177 117.41 139.169C117.526 139.162 117.642 139.178 117.751 139.218C117.86 139.257 117.96 139.319 118.045 139.399C118.129 139.478 118.196 139.575 118.242 139.682C118.288 139.788 118.311 139.904 118.31 140.02C118.309 140.136 118.284 140.251 118.237 140.357C118.19 140.463 118.121 140.558 118.036 140.637L116.098 142.709C116.016 142.799 115.915 142.869 115.802 142.916C115.69 142.963 115.569 142.984 115.447 142.98Z" fill="#263238"/>
<path d="M127.965 143.056C127.748 143.055 127.538 142.97 127.382 142.819L125.165 140.662C125.086 140.584 125.023 140.492 124.979 140.39C124.935 140.287 124.912 140.177 124.911 140.066C124.91 139.955 124.931 139.845 124.972 139.742C125.014 139.639 125.075 139.545 125.153 139.465C125.23 139.386 125.323 139.322 125.425 139.279C125.528 139.235 125.637 139.212 125.749 139.211C125.86 139.21 125.97 139.231 126.073 139.272C126.176 139.313 126.27 139.375 126.35 139.453L128.557 141.61C128.676 141.727 128.757 141.878 128.791 142.042C128.824 142.206 128.808 142.376 128.745 142.531C128.681 142.685 128.573 142.818 128.435 142.911C128.296 143.005 128.133 143.055 127.965 143.056Z" fill="#263238"/>
<path d="M174.092 122.535H138.463V123.863H174.092V122.535Z" fill="#263238"/>
<path d="M174.083 147.768H138.581V149.096H174.083V147.768Z" fill="#263238"/>
<path d="M143.099 123.195V148.225H144.427V123.195H143.099Z" fill="#263238"/>
<path d="M168.307 123.195V148.225H169.635V123.195H168.307Z" fill="#263238"/>
<path d="M142.192 148.715H140.932V151.049H142.192V148.715Z" fill="#263238"/>
<path d="M157.106 148.715H155.846V151.049H157.106V148.715Z" fill="#263238"/>
<path d="M171.749 148.715H170.488V151.049H171.749V148.715Z" fill="#263238"/>
<path d="M143.767 129.099H138.463V130.402H143.767V129.099Z" fill="#263238"/>
<path d="M173.278 129.099H168.77V130.402H173.278V129.099Z" fill="#263238"/>
<path d="M173.278 141.187H168.77V142.489H173.278V141.187Z" fill="#263238"/>
<path d="M143.767 141.187H138.463V142.489H143.767V141.187Z" fill="#263238"/>
<path d="M156.337 149.273C156.113 149.27 155.901 149.179 155.744 149.019L143.403 136.331C143.248 136.173 143.161 135.961 143.161 135.739C143.161 135.518 143.248 135.305 143.403 135.147L155.736 122.636C155.815 122.555 155.91 122.491 156.015 122.448C156.119 122.404 156.232 122.382 156.345 122.383C156.457 122.383 156.568 122.406 156.671 122.449C156.774 122.493 156.867 122.556 156.946 122.636L169.591 135.595C169.747 135.756 169.832 135.972 169.828 136.196C169.825 136.419 169.734 136.632 169.575 136.788L156.929 149.07C156.764 149.211 156.553 149.284 156.337 149.273ZM145.179 135.739L156.353 147.26L167.773 136.162L156.328 124.43L145.179 135.739Z" fill="#263238"/>
<path d="M160.516 140.907H152.167C151.943 140.907 151.728 140.818 151.569 140.659C151.41 140.501 151.321 140.286 151.321 140.061V131.704C151.321 131.48 151.41 131.265 151.569 131.106C151.728 130.947 151.943 130.858 152.167 130.858H160.516C160.74 130.858 160.956 130.947 161.114 131.106C161.273 131.265 161.362 131.48 161.362 131.704V140.061C161.362 140.286 161.273 140.501 161.114 140.659C160.956 140.818 160.74 140.907 160.516 140.907ZM153.013 139.215H159.67V132.55H153.013V139.215Z" fill="#263238"/>
<path d="M160.515 132.55C160.395 132.55 160.276 132.524 160.167 132.474C160.057 132.425 159.96 132.352 159.88 132.262C159.732 132.094 159.657 131.874 159.672 131.65C159.686 131.426 159.788 131.218 159.956 131.069L162.173 129.115C162.341 128.968 162.561 128.892 162.785 128.907C163.008 128.921 163.217 129.023 163.365 129.192C163.513 129.36 163.588 129.58 163.574 129.804C163.56 130.027 163.457 130.236 163.289 130.384L161.081 132.338C160.925 132.476 160.723 132.551 160.515 132.55Z" fill="#263238"/>
<path d="M152.165 132.55C152.045 132.55 151.927 132.525 151.817 132.475C151.708 132.425 151.61 132.353 151.531 132.263L149.543 129.987C149.42 129.817 149.364 129.607 149.387 129.398C149.41 129.19 149.509 128.997 149.667 128.857C149.824 128.718 150.028 128.642 150.238 128.645C150.448 128.647 150.65 128.728 150.804 128.871L152.791 131.155C152.938 131.324 153.012 131.545 152.996 131.769C152.98 131.992 152.876 132.2 152.707 132.347C152.556 132.477 152.364 132.548 152.165 132.55Z" fill="#263238"/>
<path d="M150.221 142.98C150.008 142.979 149.802 142.898 149.646 142.752C149.564 142.676 149.498 142.584 149.451 142.483C149.405 142.381 149.378 142.272 149.375 142.16C149.371 142.048 149.389 141.937 149.428 141.832C149.468 141.728 149.527 141.632 149.604 141.55L151.549 139.478C151.703 139.314 151.915 139.218 152.14 139.211C152.364 139.204 152.583 139.286 152.746 139.44C152.91 139.594 153.006 139.806 153.013 140.031C153.02 140.255 152.938 140.473 152.784 140.637L150.839 142.709C150.76 142.794 150.664 142.862 150.558 142.909C150.452 142.955 150.337 142.98 150.221 142.98Z" fill="#263238"/>
<path d="M162.731 143.056C162.51 143.058 162.298 142.973 162.139 142.82L159.931 140.663C159.842 140.588 159.768 140.496 159.716 140.392C159.664 140.287 159.634 140.174 159.628 140.057C159.622 139.941 159.64 139.825 159.681 139.716C159.722 139.606 159.785 139.507 159.866 139.424C159.947 139.34 160.045 139.274 160.153 139.23C160.261 139.186 160.376 139.165 160.493 139.167C160.609 139.17 160.724 139.197 160.83 139.246C160.935 139.295 161.03 139.366 161.107 139.453L163.323 141.61C163.442 141.728 163.523 141.878 163.556 142.042C163.59 142.206 163.573 142.376 163.51 142.531C163.447 142.686 163.339 142.818 163.2 142.912C163.061 143.005 162.898 143.056 162.731 143.056Z" fill="#263238"/>
<path d="M236.374 6.37839C236.374 6.50527 185.189 6.59831 122.069 6.59831C58.9494 6.59831 7.74805 6.50527 7.74805 6.37839C7.74805 6.2515 58.924 6.15845 122.069 6.15845C185.214 6.15845 236.374 6.25996 236.374 6.37839Z" fill="#263238"/>
<path d="M232.592 12.4856C232.592 12.604 183.404 12.7055 122.737 12.7055C62.0706 12.7055 12.874 12.604 12.874 12.4856C12.874 12.3671 62.0537 12.2656 122.737 12.2656C183.421 12.2656 232.592 12.3587 232.592 12.4856Z" fill="#263238"/>
<g opacity="0.4">
<path d="M52.9775 48.9348V155.516H60.895V58.451C100.956 45.9996 141.372 46.1011 182.136 58.451V155.516H188.217V48.9348C142.743 35.333 97.6571 35.2145 52.9775 48.9348Z" fill="white"/>
</g>
<path d="M226.148 151.287H16.792C14.8158 151.287 13.2139 152.889 13.2139 154.865C13.2139 156.841 14.8158 158.443 16.792 158.443H226.148C228.124 158.443 229.726 156.841 229.726 154.865C229.726 152.889 228.124 151.287 226.148 151.287Z" fill="#FFB961"/>
<g opacity="0.1">
<path d="M194.445 51.4722C183.4 43.2723 170.726 37.5352 157.277 34.6476C130.403 28.6502 101.787 28.0243 75.7419 36.9399C49.6972 45.8555 26.5623 65.1332 16.75 90.7804V151.21H53.1061V48.8584C97.9379 35.1805 142.584 35.3243 188.219 48.9176V151.27H225.184V88.3527C219.957 75.5799 208.055 61.7158 194.445 51.4722Z" fill="white"/>
</g>
<g opacity="0.4">
<path d="M226.714 31.2981H15.6486C15.2291 31.2992 14.8135 31.2176 14.4256 31.0578C14.0378 30.8981 13.6852 30.6633 13.3882 30.3671C13.0912 30.0709 12.8555 29.7189 12.6947 29.3315C12.5339 28.944 12.4512 28.5287 12.4512 28.1092C12.4512 27.6897 12.5339 27.2743 12.6947 26.8868C12.8555 26.4994 13.0912 26.1474 13.3882 25.8512C13.6852 25.555 14.0378 25.3203 14.4256 25.1605C14.8135 25.0007 15.2291 24.9191 15.6486 24.9202H226.714C227.559 24.9202 228.37 25.2562 228.969 25.8542C229.567 26.4523 229.903 27.2634 229.903 28.1092C229.903 28.9549 229.567 29.7661 228.969 30.3641C228.37 30.9622 227.559 31.2981 226.714 31.2981Z" fill="white"/>
</g>
<path d="M226.256 31.2978C226.256 31.4247 179.073 31.5177 120.876 31.5177C62.6791 31.5177 15.4619 31.4247 15.4619 31.2978C15.4619 31.1709 62.6369 31.0779 120.842 31.0779C179.047 31.0779 226.256 31.1709 226.256 31.2978Z" fill="#263238"/>
<g opacity="0.3">
<path d="M16.5703 36.9235V31.2983H225.182V35.7223C225.182 35.7223 163.999 31.8735 156.784 32.1104C149.569 32.3472 73.2953 32.1104 70.8845 32.2288C68.4738 32.3472 16.5703 36.9235 16.5703 36.9235Z" fill="black"/>
</g>
<g opacity="0.3">
<path d="M225.182 12.4854H16.5703V19.3285H225.182V12.4854Z" fill="black"/>
</g>
<path d="M158.808 11.0305C158.808 11.1574 141.391 11.2504 119.897 11.2504C98.4031 11.2504 80.9863 11.1574 80.9863 11.0305C80.9863 10.9036 98.4031 10.8105 119.897 10.8105C141.391 10.8105 158.808 10.9121 158.808 11.0305Z" fill="white"/>
<path d="M172.349 29.5302C172.349 29.6487 148.326 29.7502 118.694 29.7502C89.0632 29.7502 65.04 29.6487 65.04 29.5302C65.04 29.4118 89.0547 29.3103 118.661 29.3103C148.267 29.3103 172.349 29.4033 172.349 29.5302Z" fill="white"/>
<path d="M153.029 48.7739C152.802 48.7733 152.576 48.7535 152.352 48.7147L150.407 48.4779C148.715 48.2495 146.27 47.9619 143.242 47.632C140.214 47.3021 136.61 47.0314 132.601 46.7861C128.591 46.5408 124.142 46.4647 119.523 46.4901C114.905 46.5154 110.464 46.7354 106.454 46.9976C102.445 47.2598 98.8415 47.632 95.8217 47.9957C92.8019 48.3595 90.3573 48.6809 88.674 48.9347L86.7369 49.2053C86.5111 49.249 86.2817 49.2717 86.0518 49.273C86.2694 49.2021 86.4931 49.1512 86.72 49.1208L88.6486 48.7655C90.3404 48.461 92.7596 48.0803 95.7794 47.6828C98.7992 47.2852 102.411 46.9045 106.421 46.5916C110.43 46.2786 114.879 46.1009 119.523 46.0502C124.167 45.9994 128.6 46.1602 132.618 46.3801C136.636 46.6 140.231 46.9468 143.276 47.3021C146.321 47.6574 148.749 47.9873 150.424 48.2664L152.361 48.5878C152.589 48.6258 152.813 48.6882 153.029 48.7739Z" fill="white"/>
<path d="M142.176 61.8937C142.018 61.9085 141.86 61.9085 141.702 61.8937L140.349 61.6991C139.181 61.513 137.481 61.2762 135.375 61.014C124.403 59.6606 113.307 59.6606 102.335 61.014C100.229 61.2677 98.5283 61.5046 97.361 61.6907L96.0076 61.8768C95.8475 61.8976 95.6854 61.8976 95.5254 61.8768C95.6746 61.8152 95.8309 61.7726 95.9906 61.7499L97.3271 61.4792C98.4944 61.2424 100.186 60.9548 102.292 60.6333C107.781 59.8833 113.315 59.5074 118.855 59.5083C124.396 59.5142 129.93 59.9042 135.417 60.6756C137.515 60.9717 139.215 61.2593 140.383 61.5215L141.719 61.8007C141.875 61.8095 142.029 61.8409 142.176 61.8937Z" fill="white"/>
<path d="M169.321 122.298C169.321 122.425 146.879 122.518 119.202 122.518C91.5246 122.518 69.0664 122.425 69.0664 122.298C69.0664 122.171 91.5077 122.078 119.202 122.078C146.896 122.078 169.321 122.18 169.321 122.298Z" fill="white"/>
<mask id="mask2_23_4596" style="mask-type:luminance" maskUnits="userSpaceOnUse" x="117" y="66" width="9" height="23">
<path d="M118.127 88.4203C118.127 88.4203 116.875 82.2707 118.66 77.8045C120.445 73.3382 120.808 71.1897 120.275 69.3456C119.743 67.5016 120.504 66.7234 120.504 66.7234C120.504 66.7234 124.733 69.1849 125.105 73.3466C125.478 77.5084 122.957 78.2697 121.257 81.3487C120.053 83.6318 119.008 85.9945 118.127 88.4203Z" fill="white"/>
</mask>
<g mask="url(#mask2_23_4596)">
<g opacity="0.3">
<path d="M117.916 88.0224C116.799 85.3081 116.588 82.3058 117.315 79.4621C118.043 76.6453 120.792 75.5118 121.418 70.538C122.644 73.1941 123.406 78.0495 122.526 80.8409C123.677 80.1201 124.614 79.1048 125.24 77.9001C125.866 76.6953 126.158 75.3451 126.087 73.9892C125.911 71.2586 124.779 68.6772 122.89 66.6977C122.171 65.9195 121.105 65.1667 120.149 65.6065C119.601 65.9371 119.19 66.4534 118.99 67.0614C116.192 73.3306 115.148 80.2421 115.97 87.0581" fill="black"/>
</g>
</g>
<path d="M226.934 151.287C226.934 151.405 184.521 151.507 132.195 151.507C79.8687 151.507 37.4561 151.405 37.4561 151.287C37.4561 151.168 79.8687 151.067 132.195 151.067C184.521 151.067 226.934 151.16 226.934 151.287Z" fill="#263238"/>
<path d="M200.314 171.943C200.314 174.379 200.314 176.35 200.221 176.35C200.128 176.35 200.119 174.379 200.119 171.943C200.119 169.507 200.161 167.536 200.221 167.536C200.28 167.536 200.314 169.516 200.314 171.943Z" fill="#EBEBEB"/>
</svg>
