<svg width="400" height="557" viewBox="0 0 400 557" fill="none" xmlns="http://www.w3.org/2000/svg">
<path d="M304.969 39.1929C319.177 43.2128 332.57 50.1234 344.869 58.666C345.736 50.6782 345.83 43.3296 345.291 36.5812C335.389 29.1514 324.472 23.0843 312.568 19.4895C310.751 25.6409 307.967 32.5808 304.969 39.1929Z" fill="#F9D5D2"/>
<path d="M313.715 15.2904C313.417 16.6206 312.992 18.0546 312.57 19.4919C324.477 23.0867 335.391 29.1538 345.293 36.5836C344.57 27.5186 342.675 19.56 339.654 12.8798C331.212 -5.82438 317.939 -3.41052 313.715 15.2904Z" fill="#D84141"/>
<path d="M291.99 64.7582L336.633 96.1286C340.951 82.4955 343.638 69.9785 344.864 58.6652C332.568 50.1226 319.171 43.212 304.964 39.1921C298.813 52.7603 291.99 64.7582 291.99 64.7582Z" fill="#D84141"/>
<path d="M109.123 39.1929C94.9159 43.2128 81.5229 50.1234 69.2265 58.666C68.3602 50.6782 68.2662 43.3296 68.8047 36.5812C78.7067 29.1514 89.6242 23.0843 101.528 19.4895C103.342 25.6409 106.125 32.5808 109.123 39.1929Z" fill="#F9D5D2"/>
<path d="M100.377 15.2904C100.675 16.6206 101.1 18.0546 101.522 19.4919C89.6151 23.0867 78.7008 29.1538 68.7988 36.5836C69.5223 27.5186 71.4171 19.56 74.4376 12.8798C82.8829 -5.82438 96.1559 -3.41052 100.377 15.2904Z" fill="#D84141"/>
<path d="M122.097 64.7582L77.454 96.1286C73.1357 82.4955 70.4493 69.9785 69.2229 58.6652C81.5193 50.1226 94.9156 43.212 109.12 39.1921C115.278 52.7603 122.097 64.7582 122.097 64.7582Z" fill="#D84141"/>
<path d="M380.173 221.344C377.209 131.04 299.508 58.6914 204.024 58.6914C108.539 58.6914 30.8385 131.043 27.8746 221.344H27.8322V223.01C27.8061 224.234 27.7344 225.449 27.7344 226.679C27.7344 227.91 27.8028 229.124 27.8322 230.349V482.175V487.979V528.11C27.8322 528.116 27.8322 528.119 27.8322 528.125C27.8322 543.583 40.9823 556.117 57.204 556.117C73.4256 556.117 86.5758 543.586 86.5758 528.125C86.5758 543.583 99.7259 556.117 115.948 556.117C132.169 556.117 145.323 543.586 145.323 528.125C145.323 543.583 158.473 556.117 174.694 556.117C190.916 556.117 204.066 543.586 204.066 528.125C204.066 543.583 217.216 556.117 233.441 556.117C249.663 556.117 262.816 543.586 262.816 528.125C262.816 543.583 275.966 556.117 292.188 556.117C308.41 556.117 321.56 543.586 321.56 528.125C321.56 543.583 334.71 556.117 350.932 556.117C367.153 556.117 380.303 543.586 380.303 528.125C380.303 528.119 380.303 528.116 380.303 528.11V487.979V482.175V221.344H380.173Z" fill="#E54E4E"/>
<path d="M371.487 313.849C368.376 327.993 362.165 342.158 356.214 355.838C350.677 368.562 342.809 380.502 334.508 391.828C325.991 403.448 315.384 412.897 303.287 421.078C278.135 438.092 248.261 449.492 217.337 451.456C191.542 453.093 164.469 448.492 140.699 438.86C119.958 430.455 101.373 417.589 86.6443 401.32C71.5703 384.669 60.6733 364.926 53.6303 344.041C49.835 332.787 47.1547 321.204 45.4396 309.502C43.0528 293.224 41.3834 276.866 40.6106 260.441C39.0259 226.699 41.028 192.785 46.8906 159.464C47.6503 155.136 48.4133 150.805 49.1828 146.47C36.4044 168.845 28.7615 194.27 27.8746 221.333H27.8322V222.998C27.8061 224.222 27.7344 225.437 27.7344 226.667C27.7344 227.898 27.8028 229.113 27.8322 230.337V528.098C27.8322 528.104 27.8322 528.108 27.8322 528.114C27.8322 543.572 40.9823 556.105 57.204 556.105C73.4256 556.105 86.5758 543.575 86.5758 528.114C86.5758 543.572 99.7292 556.105 115.951 556.105C132.172 556.105 145.326 543.575 145.326 528.114C145.326 543.572 158.479 556.105 174.701 556.105C190.923 556.105 204.073 543.575 204.073 528.114C204.073 543.572 217.226 556.105 233.451 556.105C249.673 556.105 262.826 543.575 262.826 528.114C262.826 543.572 275.976 556.105 292.198 556.105C308.42 556.105 321.57 543.575 321.57 528.114C321.57 528.108 321.57 528.104 321.57 528.098H321.573C321.573 528.104 321.573 528.108 321.573 528.114C321.573 543.572 334.723 556.105 350.945 556.105C367.166 556.105 380.316 543.575 380.316 528.114C380.316 528.108 380.316 528.104 380.316 528.098V293.193C377.353 300.082 373.084 306.579 371.487 313.849Z" fill="#E54E4E"/>
<path d="M380.312 296.254V221.345" stroke="#E54E4E" stroke-width="0.3" stroke-miterlimit="10" stroke-linecap="round" stroke-linejoin="round"/>
<path d="M27.8335 230.349V319.05" stroke="#E54E4E" stroke-width="0.3" stroke-miterlimit="10" stroke-linecap="round" stroke-linejoin="round"/>
<path d="M384.782 225.032C404.901 190.072 352.271 122.234 343.879 111.791C343.484 111.25 343.083 110.723 342.681 110.193C331.18 58.571 257.048 57.4454 239.102 57.9419C241.104 49.2062 243.848 29.5858 228.302 28.6065C211.337 27.5354 197.461 51.3825 193.615 58.6934C193.364 58.6968 193.113 58.7002 192.862 58.707C193.827 52.0728 195.885 32.0783 185.242 33.6629C174.811 35.2169 159.108 54.1368 153.759 60.9445C153.413 60.9853 153.031 61.0193 152.692 61.0635C152.692 61.0635 92.2436 64.8583 60.7049 93.9421C29.1661 123.026 23.709 147.053 38.2634 153.378C38.2634 153.378 -34.5181 351.282 20.6755 327.887C20.6755 327.887 -1.76597 435.375 31.5929 423.994C31.5929 423.994 15.8219 528.318 47.3607 519.467C47.3607 519.467 334.445 515.461 359.718 515.883C359.718 515.883 77.0668 477.945 81.9204 505.767C81.9204 505.767 111.362 519.976 167.162 500.584C167.162 500.584 148.342 500.584 174.53 505.767C174.53 505.767 192.144 505.002 203.6 504.93C215.055 505.002 232.669 505.767 232.669 505.767C228.625 542.019 286.722 478.656 286.722 478.656C153.137 504.93 329.896 512.124 329.896 512.124C338.429 514.797 333.663 490.528 329.896 512.124C348.795 513.052 359.718 515.883 359.718 515.883C391.257 522.626 376.699 417.247 376.699 417.247C396.107 415.56 383.976 356.55 383.976 356.55C419.553 340.53 384.782 225.032 384.782 225.032Z" fill="#E54E4E"/>
<path d="M131.429 240C140.896 240 148.571 231.045 148.571 220C148.571 208.954 140.896 200 131.429 200C121.961 200 114.286 208.954 114.286 220C114.286 231.045 121.961 240 131.429 240Z" fill="#2B2B2B"/>
<path d="M134.295 228.936C134.295 230.783 133.011 232.281 131.427 232.281C129.843 232.281 128.562 230.783 128.562 228.936C128.562 227.089 129.845 225.592 131.427 225.592C133.011 225.592 134.295 227.089 134.295 228.936Z" fill="#F9F8E8"/>
<path d="M126.524 223.693C130.203 223.693 133.185 220.215 133.185 215.924C133.185 211.633 130.203 208.154 126.524 208.154C122.845 208.154 119.863 211.633 119.863 215.924C119.863 220.215 122.845 223.693 126.524 223.693Z" fill="#F9F8E8"/>
<path d="M274.284 240C283.75 240 291.424 231.045 291.424 220C291.424 208.954 283.75 200 274.284 200C264.817 200 257.143 208.954 257.143 220C257.143 231.045 264.817 240 274.284 240Z" fill="#2B2B2B"/>
<path d="M277.15 228.936C277.15 230.783 275.867 232.281 274.283 232.281C272.7 232.281 271.416 230.783 271.416 228.936C271.416 227.089 272.7 225.592 274.283 225.592C275.867 225.592 277.15 227.089 277.15 228.936Z" fill="#F9F8E8"/>
<path d="M269.386 223.695C273.064 223.695 276.046 220.216 276.046 215.925C276.046 211.634 273.064 208.156 269.386 208.156C265.708 208.156 262.726 211.634 262.726 215.925C262.726 220.216 265.708 223.695 269.386 223.695Z" fill="#F9F8E8"/>
<path d="M123.659 252.581C121.946 253.168 120.16 254.022 118.914 256.278C117.097 259.562 116.958 265.217 118.176 269.345C119.394 273.472 121.714 276.175 124.146 277.513C126.581 278.852 129.153 278.983 131.692 279.089C135.697 279.253 139.842 279.32 143.525 276.396C145.599 274.753 147.579 271.848 148.087 267.779C150.66 247.122 128.875 250.793 123.659 252.581Z" fill="#F47A6E"/>
<path d="M287.565 252.581C289.279 253.168 291.065 254.022 292.31 256.278C294.128 259.562 294.267 265.217 293.049 269.345C291.831 273.472 289.512 276.175 287.078 277.513C284.644 278.852 282.071 278.983 279.533 279.089C275.527 279.253 271.383 279.32 267.699 276.396C265.626 274.753 263.645 271.848 263.138 267.779C260.563 247.122 282.348 250.793 287.565 252.581Z" fill="#F47A6E"/>
<path d="M173.076 247.007C172.758 257.323 176.187 267.144 180.794 272.969C185.401 278.792 191.027 281.17 196.569 282.309C205.4 284.123 216.31 284.335 224.699 278.323C231.856 273.194 238.102 261.081 238.164 246.863" stroke="#2B2B2B" stroke-miterlimit="10" stroke-linecap="round"/>
</svg>
