<svg width="610" height="557" viewBox="0 0 610 557" fill="none" xmlns="http://www.w3.org/2000/svg">
<path d="M407.829 39.193C422.036 43.2129 435.429 50.1236 447.729 58.6662C448.595 50.6784 448.689 43.3297 448.151 36.5813C438.249 29.1515 427.331 23.0843 415.427 19.4895C413.61 25.641 410.826 32.5809 407.829 39.193Z" fill="#F9D5D2"/>
<path d="M416.574 15.2904C416.276 16.6207 415.851 18.0547 415.429 19.492C427.336 23.0868 438.251 29.154 448.153 36.5837C447.429 27.5188 445.534 19.5601 442.514 12.8798C434.072 -5.82441 420.799 -3.41054 416.574 15.2904Z" fill="#D84141"/>
<path d="M394.849 64.7586L439.492 96.1291C443.811 82.496 446.497 69.9789 447.723 58.6655C435.427 50.1229 422.031 43.2123 407.823 39.1924C401.672 52.7607 394.849 64.7586 394.849 64.7586Z" fill="#D84141"/>
<path d="M211.982 39.193C197.774 43.2129 184.381 50.1236 172.085 58.6662C171.218 50.6784 171.124 43.3297 171.663 36.5813C181.565 29.1515 192.483 23.0843 204.386 19.4895C206.2 25.641 208.984 32.5809 211.982 39.193Z" fill="#F9D5D2"/>
<path d="M203.236 15.2904C203.535 16.6207 203.96 18.0547 204.382 19.492C192.475 23.0868 181.56 29.154 171.658 36.5837C172.382 27.5188 174.276 19.5601 177.297 12.8798C185.742 -5.82441 199.015 -3.41054 203.236 15.2904Z" fill="#D84141"/>
<path d="M224.954 64.7586L180.311 96.1291C175.992 82.496 173.306 69.9789 172.08 58.6655C184.376 50.1229 197.772 43.2123 211.977 39.1924C218.135 52.7607 224.954 64.7586 224.954 64.7586Z" fill="#D84141"/>
<path d="M483.033 221.345C480.069 131.041 402.367 58.6917 306.883 58.6917C211.398 58.6917 133.696 131.044 130.732 221.345H130.69V223.011C130.664 224.235 130.592 225.45 130.592 226.68C130.592 227.911 130.661 229.126 130.69 230.35V482.177V487.981V528.112C130.69 528.119 130.69 528.122 130.69 528.128C130.69 543.586 143.84 556.12 160.062 556.12C176.284 556.12 189.434 543.589 189.434 528.128C189.434 543.586 202.584 556.12 218.806 556.12C235.028 556.12 248.181 543.589 248.181 528.128C248.181 543.586 261.331 556.12 277.553 556.12C293.775 556.12 306.925 543.589 306.925 528.128C306.925 543.586 320.075 556.12 336.3 556.12C352.522 556.12 365.675 543.589 365.675 528.128C365.675 543.586 378.826 556.12 395.047 556.12C411.269 556.12 424.419 543.589 424.419 528.128C424.419 543.586 437.569 556.12 453.791 556.12C470.013 556.12 483.163 543.589 483.163 528.128C483.163 528.122 483.163 528.119 483.163 528.112V487.981V482.177V221.345H483.033Z" fill="#E54E4E"/>
<path d="M474.346 313.851C471.236 327.994 465.024 342.16 459.073 355.84C453.537 368.564 445.669 380.504 437.367 391.83C428.85 403.45 418.244 412.899 406.147 421.08C380.994 438.094 351.12 449.494 320.196 451.458C294.401 453.095 267.328 448.494 243.557 438.862C222.817 430.457 204.231 417.591 189.502 401.322C174.428 384.671 163.531 364.928 156.488 344.042C152.693 332.788 150.013 321.205 148.298 309.504C145.911 293.226 144.241 276.867 143.469 260.443C141.884 226.7 143.886 192.786 149.749 159.465C150.508 155.137 151.271 150.806 152.041 146.471C139.262 168.845 131.619 194.271 130.732 221.334H130.69V222.999C130.664 224.223 130.592 225.438 130.592 226.669C130.592 227.899 130.661 229.114 130.69 230.338V528.101C130.69 528.107 130.69 528.11 130.69 528.116C130.69 543.574 143.84 556.108 160.062 556.108C176.284 556.108 189.434 543.577 189.434 528.116C189.434 543.574 202.587 556.108 218.809 556.108C235.031 556.108 248.184 543.577 248.184 528.116C248.184 543.574 261.338 556.108 277.56 556.108C293.781 556.108 306.932 543.577 306.932 528.116C306.932 543.574 320.085 556.108 336.31 556.108C352.532 556.108 365.685 543.577 365.685 528.116C365.685 543.574 378.835 556.108 395.057 556.108C411.279 556.108 424.429 543.577 424.429 528.116C424.429 528.11 424.429 528.107 424.429 528.101H424.432C424.432 528.107 424.432 528.11 424.432 528.116C424.432 543.574 437.582 556.108 453.804 556.108C470.026 556.108 483.176 543.577 483.176 528.116C483.176 528.11 483.176 528.107 483.176 528.101V293.195C480.212 300.083 475.944 306.58 474.346 313.851Z" fill="#E54E4E"/>
<path d="M483.172 296.255V221.346" stroke="#E54E4E" stroke-width="0.3" stroke-miterlimit="10" stroke-linecap="round" stroke-linejoin="round"/>
<path d="M130.69 230.35V319.051" stroke="#E54E4E" stroke-width="0.3" stroke-miterlimit="10" stroke-linecap="round" stroke-linejoin="round"/>
<path d="M487.641 225.033C507.761 190.073 455.13 122.234 446.738 111.791C446.343 111.251 445.942 110.724 445.541 110.193C434.039 58.5711 359.907 57.4456 341.96 57.942C343.963 49.2063 346.706 29.5858 331.16 28.6065C314.195 27.5354 300.319 51.3826 296.474 58.6935C296.222 58.6969 295.971 58.7003 295.72 58.7071C296.686 52.0729 298.744 32.0783 288.1 33.6629C277.669 35.2169 261.966 54.137 256.617 60.9446C256.271 60.9854 255.89 61.0194 255.55 61.0636C255.55 61.0636 195.102 64.8585 163.563 93.9425C132.024 123.026 126.567 147.054 141.121 153.379C141.121 153.379 68.3391 351.284 123.533 327.889C123.533 327.889 101.091 435.377 134.45 423.996C134.45 423.996 118.679 528.321 150.218 519.47C150.218 519.47 437.304 515.464 462.577 515.886C462.577 515.886 179.925 477.947 184.778 505.769C184.778 505.769 214.22 519.979 270.02 500.586C270.02 500.586 251.201 500.586 277.388 505.769C277.388 505.769 295.002 505.004 306.458 504.933C317.914 505.004 335.528 505.769 335.528 505.769C331.483 542.021 389.58 478.659 389.58 478.659C255.995 504.933 432.755 512.127 432.755 512.127C441.288 514.799 436.522 490.53 432.755 512.127C451.654 513.055 462.577 515.886 462.577 515.886C494.116 522.629 479.559 417.249 479.559 417.249C498.967 415.562 486.836 356.551 486.836 356.551C522.413 340.532 487.641 225.033 487.641 225.033Z" fill="#E54E4E"/>
<path d="M453.485 316.053C472.764 308.764 485.411 289.52 494.222 270.362C503.032 251.204 509.666 230.529 523.051 214.368C536.436 198.206 559.432 187.721 577.555 196.937C591.795 204.18 598.894 221.924 597.487 238.401C596.08 254.879 587.533 270.064 577.08 282.814C565.138 297.384 550.447 309.566 534.109 318.454C509.708 331.726 482.342 337.421 455.419 342.955" fill="#E54E4E"/>
<path d="M150.045 321.533C131.3 313.683 119.465 294.255 111.404 275.042C103.345 255.832 97.4734 235.192 84.8137 218.782C72.154 202.372 49.8562 191.239 31.7186 199.724C17.47 206.391 9.91566 223.669 10.7743 239.984C11.633 256.3 19.5615 271.582 29.4435 284.525C40.7342 299.314 54.8065 311.839 70.6048 321.168C94.2 335.1 120.956 341.65 147.282 348.028" fill="#E54E4E"/>
<path d="M224.424 255.366C233.841 255.366 241.475 246.407 241.475 235.355C241.475 224.302 233.841 215.343 224.424 215.343C215.007 215.343 207.373 224.302 207.373 235.355C207.373 246.407 215.007 255.366 224.424 255.366Z" fill="#2B2B2B"/>
<path d="M227.274 244.299C227.274 246.147 225.997 247.646 224.422 247.646C222.846 247.646 221.572 246.147 221.572 244.299C221.572 242.451 222.849 240.953 224.422 240.953C225.997 240.953 227.274 242.451 227.274 244.299Z" fill="#F9F8E8"/>
<path d="M219.542 239.052C223.201 239.052 226.167 235.572 226.167 231.278C226.167 226.985 223.201 223.504 219.542 223.504C215.883 223.504 212.917 226.985 212.917 231.278C212.917 235.572 215.883 239.052 219.542 239.052Z" fill="#F9F8E8"/>
<path d="M395.089 255.366C404.506 255.366 412.14 246.407 412.14 235.355C412.14 224.302 404.506 215.343 395.089 215.343C385.672 215.343 378.038 224.302 378.038 235.355C378.038 246.407 385.672 255.366 395.089 255.366Z" fill="#2B2B2B"/>
<path d="M397.941 244.299C397.941 246.147 396.664 247.646 395.089 247.646C393.514 247.646 392.237 246.147 392.237 244.299C392.237 242.451 393.514 240.953 395.089 240.953C396.664 240.953 397.941 242.451 397.941 244.299Z" fill="#F9F8E8"/>
<path d="M390.21 239.052C393.869 239.052 396.835 235.572 396.835 231.278C396.835 226.985 393.869 223.504 390.21 223.504C386.551 223.504 383.584 226.985 383.584 231.278C383.584 235.572 386.551 239.052 390.21 239.052Z" fill="#F9F8E8"/>
<path d="M291.76 267.958C289.479 275.779 288.784 284.393 291.858 291.937C294.932 299.481 302.45 305.562 310.585 305.128C318.205 304.72 324.73 298.737 327.559 291.649C330.388 284.562 330.081 276.591 328.682 269.09C327.506 262.772 325.161 256.023 319.633 252.745C306.846 245.165 295.166 256.281 291.76 267.958Z" fill="#2B2B2B" stroke="#2B2B2B" stroke-miterlimit="10" stroke-linecap="round" stroke-linejoin="round"/>
<path d="M306.264 285.38C300.626 286.169 296.066 289.765 293.073 294.429C296.648 300.77 303.369 305.513 310.585 305.127C316.645 304.803 322.006 300.947 325.374 295.818C322.023 288.854 313.968 284.301 306.264 285.38Z" fill="#F47A6E"/>
<path d="M206.17 197.192C215.786 189.612 226.082 182.893 236.891 177.144" stroke="#2B2B2B" stroke-miterlimit="10" stroke-linecap="round"/>
<path d="M413.346 197.192C403.73 189.612 393.434 182.893 382.625 177.144" stroke="#2B2B2B" stroke-miterlimit="10" stroke-linecap="round"/>
<path d="M211.077 259.857C208.199 256.943 205.07 254.277 201.734 251.9" stroke="#2B2B2B" stroke-width="0.5" stroke-miterlimit="10" stroke-linecap="round"/>
<path d="M200.13 263.383C196.532 260.31 192.659 257.558 188.572 255.17" stroke="#2B2B2B" stroke-width="0.5" stroke-miterlimit="10" stroke-linecap="round"/>
<path d="M408.434 259.857C411.312 256.943 414.441 254.277 417.777 251.9" stroke="#2B2B2B" stroke-width="0.5" stroke-miterlimit="10" stroke-linecap="round"/>
<path d="M419.38 263.383C422.978 260.31 426.851 257.558 430.938 255.17" stroke="#2B2B2B" stroke-width="0.5" stroke-miterlimit="10" stroke-linecap="round"/>
</svg>
