<svg width="400" height="557" viewBox="0 0 400 557" fill="none" xmlns="http://www.w3.org/2000/svg">
<path d="M304.969 39.1929C319.177 43.2128 332.57 50.1234 344.869 58.666C345.736 50.6782 345.83 43.3296 345.291 36.5812C335.389 29.1514 324.472 23.0843 312.568 19.4895C310.751 25.6409 307.967 32.5808 304.969 39.1929Z" fill="#F9D5D2"/>
<path d="M313.715 15.2904C313.417 16.6206 312.992 18.0546 312.57 19.4919C324.477 23.0867 335.391 29.1538 345.293 36.5836C344.57 27.5186 342.675 19.56 339.654 12.8798C331.212 -5.82438 317.939 -3.41052 313.715 15.2904Z" fill="#D84141"/>
<path d="M291.99 64.7582L336.633 96.1286C340.951 82.4955 343.638 69.9785 344.864 58.6652C332.568 50.1226 319.171 43.212 304.964 39.1921C298.813 52.7603 291.99 64.7582 291.99 64.7582Z" fill="#D84141"/>
<path d="M109.123 39.1929C94.9159 43.2128 81.5229 50.1234 69.2265 58.666C68.3602 50.6782 68.2662 43.3296 68.8047 36.5812C78.7067 29.1514 89.6242 23.0843 101.528 19.4895C103.342 25.6409 106.125 32.5808 109.123 39.1929Z" fill="#F9D5D2"/>
<path d="M100.377 15.2904C100.675 16.6206 101.1 18.0546 101.522 19.4919C89.6151 23.0867 78.7008 29.1538 68.7988 36.5836C69.5223 27.5186 71.4171 19.56 74.4376 12.8798C82.8829 -5.82438 96.1559 -3.41052 100.377 15.2904Z" fill="#D84141"/>
<path d="M122.097 64.7582L77.454 96.1286C73.1357 82.4955 70.4493 69.9785 69.2229 58.6652C81.5193 50.1226 94.9156 43.212 109.12 39.1921C115.278 52.7603 122.097 64.7582 122.097 64.7582Z" fill="#D84141"/>
<path d="M380.173 221.344C377.209 131.04 299.508 58.6914 204.024 58.6914C108.539 58.6914 30.8385 131.043 27.8746 221.344H27.8322V223.01C27.8061 224.234 27.7344 225.449 27.7344 226.679C27.7344 227.91 27.8028 229.124 27.8322 230.349V482.175V487.979V528.11C27.8322 528.116 27.8322 528.119 27.8322 528.125C27.8322 543.583 40.9823 556.117 57.204 556.117C73.4256 556.117 86.5758 543.586 86.5758 528.125C86.5758 543.583 99.7259 556.117 115.948 556.117C132.169 556.117 145.323 543.586 145.323 528.125C145.323 543.583 158.473 556.117 174.694 556.117C190.916 556.117 204.066 543.586 204.066 528.125C204.066 543.583 217.216 556.117 233.441 556.117C249.663 556.117 262.816 543.586 262.816 528.125C262.816 543.583 275.966 556.117 292.188 556.117C308.41 556.117 321.56 543.586 321.56 528.125C321.56 543.583 334.71 556.117 350.932 556.117C367.153 556.117 380.303 543.586 380.303 528.125C380.303 528.119 380.303 528.116 380.303 528.11V487.979V482.175V221.344H380.173Z" fill="#E54E4E"/>
<path d="M371.487 313.849C368.376 327.993 362.165 342.158 356.214 355.838C350.677 368.562 342.809 380.502 334.508 391.828C325.991 403.448 315.384 412.897 303.287 421.078C278.135 438.092 248.261 449.492 217.337 451.456C191.542 453.093 164.469 448.492 140.699 438.86C119.958 430.455 101.373 417.589 86.6443 401.32C71.5703 384.669 60.6733 364.926 53.6303 344.041C49.835 332.787 47.1547 321.204 45.4396 309.502C43.0528 293.224 41.3834 276.866 40.6106 260.441C39.0259 226.699 41.028 192.785 46.8906 159.464C47.6503 155.136 48.4133 150.805 49.1828 146.47C36.4044 168.845 28.7615 194.27 27.8746 221.333H27.8322V222.998C27.8061 224.222 27.7344 225.437 27.7344 226.667C27.7344 227.898 27.8028 229.113 27.8322 230.337V528.098C27.8322 528.104 27.8322 528.108 27.8322 528.114C27.8322 543.572 40.9823 556.105 57.204 556.105C73.4256 556.105 86.5758 543.575 86.5758 528.114C86.5758 543.572 99.7292 556.105 115.951 556.105C132.172 556.105 145.326 543.575 145.326 528.114C145.326 543.572 158.479 556.105 174.701 556.105C190.923 556.105 204.073 543.575 204.073 528.114C204.073 543.572 217.226 556.105 233.451 556.105C249.673 556.105 262.826 543.575 262.826 528.114C262.826 543.572 275.976 556.105 292.198 556.105C308.42 556.105 321.57 543.575 321.57 528.114C321.57 528.108 321.57 528.104 321.57 528.098H321.573C321.573 528.104 321.573 528.108 321.573 528.114C321.573 543.572 334.723 556.105 350.945 556.105C367.166 556.105 380.316 543.575 380.316 528.114C380.316 528.108 380.316 528.104 380.316 528.098V293.193C377.353 300.082 373.084 306.579 371.487 313.849Z" fill="#E54E4E"/>
<path d="M380.312 296.254V221.345" stroke="#E54E4E" stroke-width="0.3" stroke-miterlimit="10" stroke-linecap="round" stroke-linejoin="round"/>
<path d="M27.8335 230.349V319.05" stroke="#E54E4E" stroke-width="0.3" stroke-miterlimit="10" stroke-linecap="round" stroke-linejoin="round"/>
<path d="M384.782 225.032C404.901 190.072 352.271 122.234 343.879 111.791C343.484 111.25 343.083 110.723 342.681 110.193C331.18 58.571 257.048 57.4454 239.102 57.9419C241.104 49.2062 243.848 29.5858 228.302 28.6065C211.337 27.5354 197.461 51.3825 193.615 58.6934C193.364 58.6968 193.113 58.7002 192.862 58.707C193.827 52.0728 195.885 32.0783 185.242 33.6629C174.811 35.2169 159.108 54.1368 153.759 60.9445C153.413 60.9853 153.031 61.0193 152.692 61.0635C152.692 61.0635 92.2436 64.8583 60.7049 93.9421C29.1661 123.026 23.709 147.053 38.2634 153.378C38.2634 153.378 -34.5181 351.282 20.6755 327.887C20.6755 327.887 -1.76597 435.375 31.5929 423.994C31.5929 423.994 15.8219 528.318 47.3607 519.467C47.3607 519.467 334.445 515.461 359.718 515.883C359.718 515.883 77.0668 477.945 81.9204 505.767C81.9204 505.767 111.362 519.976 167.162 500.584C167.162 500.584 148.342 500.584 174.53 505.767C174.53 505.767 192.144 505.002 203.6 504.93C215.055 505.002 232.669 505.767 232.669 505.767C228.625 542.019 286.722 478.656 286.722 478.656C153.137 504.93 329.896 512.124 329.896 512.124C338.429 514.797 333.663 490.528 329.896 512.124C348.795 513.052 359.718 515.883 359.718 515.883C391.257 522.626 376.699 417.247 376.699 417.247C396.107 415.56 383.976 356.55 383.976 356.55C419.553 340.53 384.782 225.032 384.782 225.032Z" fill="#E54E4E"/>
<path d="M120.893 261.111C130.044 261.111 137.462 252.405 137.462 241.665C137.462 230.926 130.044 222.219 120.893 222.219C111.743 222.219 104.325 230.926 104.325 241.665C104.325 252.405 111.743 261.111 120.893 261.111Z" fill="#2B2B2B"/>
<path d="M286.624 261.111C295.775 261.111 303.193 252.405 303.193 241.665C303.193 230.926 295.775 222.219 286.624 222.219C277.474 222.219 270.056 230.926 270.056 241.665C270.056 252.405 277.474 261.111 286.624 261.111Z" fill="#2B2B2B"/>
<path d="M288.318 237.703C288.318 241.875 285.436 245.257 281.88 245.257C278.325 245.257 275.442 241.875 275.442 237.703C275.442 233.532 278.323 230.149 281.88 230.149C285.436 230.149 288.318 233.532 288.318 237.703Z" fill="#F9F8E8"/>
<path d="M122.479 237.702C122.479 241.874 119.598 245.256 116.041 245.256C112.487 245.256 109.604 241.874 109.604 237.702C109.604 233.53 112.485 230.148 116.041 230.148C119.596 230.148 122.479 233.53 122.479 237.702Z" fill="#F9F8E8"/>
<path d="M140.838 262.078H98.4254C94.5769 262.078 91.4285 258.93 91.4285 255.081C91.4285 251.233 94.5769 248.084 98.4254 248.084H140.838C144.687 248.084 147.835 251.233 147.835 255.081C147.837 258.928 144.689 262.078 140.838 262.078Z" fill="#A7D3C6"/>
<path d="M91.4285 280.525V255.079C91.4285 251.23 94.5769 248.082 98.4254 248.082C102.274 248.082 105.422 251.23 105.422 255.079V280.525C105.422 284.374 102.274 287.522 98.4254 287.522C94.5769 287.522 91.4285 284.374 91.4285 280.525Z" fill="#A7D3C6"/>
<path d="M91.4285 308.198V299.61C91.4285 295.762 94.5769 292.613 98.4254 292.613C102.274 292.613 105.422 295.762 105.422 299.61V308.198C105.422 312.046 102.274 315.195 98.4254 315.195C94.5769 315.195 91.4285 312.046 91.4285 308.198Z" fill="#A7D3C6"/>
<path d="M266.577 262.077H308.99C312.838 262.077 315.987 258.929 315.987 255.08C315.987 251.232 312.838 248.083 308.99 248.083H266.577C262.728 248.083 259.58 251.232 259.58 255.08C259.58 258.927 262.728 262.077 266.577 262.077Z" fill="#A7D3C6"/>
<path d="M315.99 280.524V255.077C315.99 251.229 312.842 248.08 308.993 248.08C305.145 248.08 301.996 251.229 301.996 255.077V280.524C301.996 284.372 305.145 287.521 308.993 287.521C312.84 287.521 315.99 284.372 315.99 280.524Z" fill="#A7D3C6"/>
<path d="M315.99 308.196V299.609C315.99 295.76 312.842 292.612 308.993 292.612C305.145 292.612 301.996 295.76 301.996 299.609V308.196C301.996 312.045 305.145 315.193 308.993 315.193C312.84 315.193 315.99 312.045 315.99 308.196Z" fill="#A7D3C6"/>
<path d="M109.321 211.428H142.257" stroke="#2B2B2B" stroke-miterlimit="10" stroke-linecap="round"/>
<path d="M265.165 211.428H298.101" stroke="#2B2B2B" stroke-miterlimit="10" stroke-linecap="round"/>
<path d="M175.564 277.473C177.77 268.74 181.747 260.459 187.186 253.278C188.756 251.206 190.78 249.054 193.379 249.004C196.128 248.953 198.398 251.291 201.126 251.627C205.262 252.134 209.188 247.954 213.16 249.216C214.6 249.673 215.725 250.784 216.752 251.892C223.757 259.446 228.971 268.651 231.846 278.546" stroke="#2B2B2B" stroke-miterlimit="10" stroke-linecap="round" stroke-linejoin="round"/>
</svg>
