<svg width="400" height="557" viewBox="0 0 400 557" fill="none" xmlns="http://www.w3.org/2000/svg">
<path d="M304.969 39.1929C319.177 43.2128 332.57 50.1234 344.869 58.666C345.736 50.6782 345.83 43.3296 345.291 36.5812C335.389 29.1514 324.472 23.0843 312.568 19.4895C310.751 25.6409 307.967 32.5808 304.969 39.1929Z" fill="#F9D5D2"/>
<path d="M313.715 15.2904C313.417 16.6206 312.992 18.0546 312.57 19.4919C324.477 23.0867 335.391 29.1538 345.293 36.5836C344.57 27.5186 342.675 19.56 339.654 12.8798C331.212 -5.82438 317.939 -3.41052 313.715 15.2904Z" fill="#D84141"/>
<path d="M291.99 64.7582L336.633 96.1286C340.951 82.4955 343.638 69.9785 344.864 58.6652C332.568 50.1226 319.171 43.212 304.964 39.1921C298.813 52.7603 291.99 64.7582 291.99 64.7582Z" fill="#D84141"/>
<path d="M109.123 39.1929C94.9159 43.2128 81.5229 50.1234 69.2265 58.666C68.3602 50.6782 68.2662 43.3296 68.8047 36.5812C78.7067 29.1514 89.6242 23.0843 101.528 19.4895C103.342 25.6409 106.125 32.5808 109.123 39.1929Z" fill="#F9D5D2"/>
<path d="M100.377 15.2904C100.675 16.6206 101.1 18.0546 101.522 19.4919C89.6151 23.0867 78.7008 29.1538 68.7988 36.5836C69.5223 27.5186 71.4171 19.56 74.4376 12.8798C82.8829 -5.82438 96.1559 -3.41052 100.377 15.2904Z" fill="#D84141"/>
<path d="M122.097 64.7582L77.454 96.1286C73.1357 82.4955 70.4493 69.9785 69.2229 58.6652C81.5193 50.1226 94.9156 43.212 109.12 39.1921C115.278 52.7603 122.097 64.7582 122.097 64.7582Z" fill="#D84141"/>
<path d="M380.173 221.344C377.209 131.04 299.508 58.6914 204.024 58.6914C108.539 58.6914 30.8385 131.043 27.8746 221.344H27.8322V223.01C27.8061 224.234 27.7344 225.449 27.7344 226.679C27.7344 227.91 27.8028 229.124 27.8322 230.349V482.175V487.979V528.11C27.8322 528.116 27.8322 528.119 27.8322 528.125C27.8322 543.583 40.9823 556.117 57.204 556.117C73.4256 556.117 86.5758 543.586 86.5758 528.125C86.5758 543.583 99.7259 556.117 115.948 556.117C132.169 556.117 145.323 543.586 145.323 528.125C145.323 543.583 158.473 556.117 174.694 556.117C190.916 556.117 204.066 543.586 204.066 528.125C204.066 543.583 217.216 556.117 233.441 556.117C249.663 556.117 262.816 543.586 262.816 528.125C262.816 543.583 275.966 556.117 292.188 556.117C308.41 556.117 321.56 543.586 321.56 528.125C321.56 543.583 334.71 556.117 350.932 556.117C367.153 556.117 380.303 543.586 380.303 528.125C380.303 528.119 380.303 528.116 380.303 528.11V487.979V482.175V221.344H380.173Z" fill="#E54E4E"/>
<path d="M371.487 313.849C368.376 327.993 362.165 342.158 356.214 355.838C350.677 368.562 342.809 380.502 334.508 391.828C325.991 403.448 315.384 412.897 303.287 421.078C278.135 438.092 248.261 449.492 217.337 451.456C191.542 453.093 164.469 448.492 140.699 438.86C119.958 430.455 101.373 417.589 86.6443 401.32C71.5703 384.669 60.6733 364.926 53.6303 344.041C49.835 332.787 47.1547 321.204 45.4396 309.502C43.0528 293.224 41.3834 276.866 40.6106 260.441C39.0259 226.699 41.028 192.785 46.8906 159.464C47.6503 155.136 48.4133 150.805 49.1828 146.47C36.4044 168.845 28.7615 194.27 27.8746 221.333H27.8322V222.998C27.8061 224.222 27.7344 225.437 27.7344 226.667C27.7344 227.898 27.8028 229.113 27.8322 230.337V528.098C27.8322 528.104 27.8322 528.108 27.8322 528.114C27.8322 543.572 40.9823 556.105 57.204 556.105C73.4256 556.105 86.5758 543.575 86.5758 528.114C86.5758 543.572 99.7292 556.105 115.951 556.105C132.172 556.105 145.326 543.575 145.326 528.114C145.326 543.572 158.479 556.105 174.701 556.105C190.923 556.105 204.073 543.575 204.073 528.114C204.073 543.572 217.226 556.105 233.451 556.105C249.673 556.105 262.826 543.575 262.826 528.114C262.826 543.572 275.976 556.105 292.198 556.105C308.42 556.105 321.57 543.575 321.57 528.114C321.57 528.108 321.57 528.104 321.57 528.098H321.573C321.573 528.104 321.573 528.108 321.573 528.114C321.573 543.572 334.723 556.105 350.945 556.105C367.166 556.105 380.316 543.575 380.316 528.114C380.316 528.108 380.316 528.104 380.316 528.098V293.193C377.353 300.082 373.084 306.579 371.487 313.849Z" fill="#E54E4E"/>
<path d="M380.312 296.254V221.345" stroke="#E54E4E" stroke-width="0.3" stroke-miterlimit="10" stroke-linecap="round" stroke-linejoin="round"/>
<path d="M27.8335 230.349V319.05" stroke="#E54E4E" stroke-width="0.3" stroke-miterlimit="10" stroke-linecap="round" stroke-linejoin="round"/>
<path d="M384.782 225.032C404.901 190.072 352.271 122.234 343.879 111.791C343.484 111.25 343.083 110.723 342.681 110.193C331.18 58.571 257.048 57.4454 239.102 57.9419C241.104 49.2062 243.848 29.5858 228.302 28.6065C211.337 27.5354 197.461 51.3825 193.615 58.6934C193.364 58.6968 193.113 58.7002 192.862 58.707C193.827 52.0728 195.885 32.0783 185.242 33.6629C174.811 35.2169 159.108 54.1368 153.759 60.9445C153.413 60.9853 153.031 61.0193 152.692 61.0635C152.692 61.0635 92.2436 64.8583 60.7049 93.9421C29.1661 123.026 23.709 147.053 38.2634 153.378C38.2634 153.378 -34.5181 351.282 20.6755 327.887C20.6755 327.887 -1.76597 435.375 31.5929 423.994C31.5929 423.994 15.8219 528.318 47.3607 519.467C47.3607 519.467 334.445 515.461 359.718 515.883C359.718 515.883 77.0668 477.945 81.9204 505.767C81.9204 505.767 111.362 519.976 167.162 500.584C167.162 500.584 148.342 500.584 174.53 505.767C174.53 505.767 192.144 505.002 203.6 504.93C215.055 505.002 232.669 505.767 232.669 505.767C228.625 542.019 286.722 478.656 286.722 478.656C153.137 504.93 329.896 512.124 329.896 512.124C338.429 514.797 333.663 490.528 329.896 512.124C348.795 513.052 359.718 515.883 359.718 515.883C391.257 522.626 376.699 417.247 376.699 417.247C396.107 415.56 383.976 356.55 383.976 356.55C419.553 340.53 384.782 225.032 384.782 225.032Z" fill="#E54E4E"/>
<path d="M120.135 231.165C128.812 231.165 135.846 222.909 135.846 212.725C135.846 202.541 128.812 194.286 120.135 194.286C111.458 194.286 104.424 202.541 104.424 212.725C104.424 222.909 111.458 231.165 120.135 231.165Z" fill="#2B2B2B"/>
<path d="M122.762 220.965C122.762 222.668 121.586 224.048 120.134 224.048C118.683 224.048 117.508 222.668 117.508 220.965C117.508 219.262 118.685 217.881 120.134 217.881C121.586 217.883 122.762 219.262 122.762 220.965Z" fill="#F9F8E8"/>
<path d="M121.74 208.97C121.74 212.926 119.008 216.133 115.636 216.133C112.265 216.133 109.531 212.926 109.531 208.97C109.531 205.014 112.263 201.807 115.636 201.807C119.006 201.805 121.74 205.012 121.74 208.97Z" fill="#F9F8E8"/>
<path d="M277.391 231.165C286.068 231.165 293.102 222.909 293.102 212.725C293.102 202.541 286.068 194.286 277.391 194.286C268.714 194.286 261.68 202.541 261.68 212.725C261.68 222.909 268.714 231.165 277.391 231.165Z" fill="#2B2B2B"/>
<path d="M280.016 220.965C280.016 222.668 278.84 224.048 277.388 224.048C275.937 224.048 274.76 222.668 274.76 220.965C274.76 219.262 275.937 217.881 277.388 217.881C278.84 217.883 280.016 219.262 280.016 220.965Z" fill="#F9F8E8"/>
<path d="M278.998 208.97C278.998 212.926 276.266 216.133 272.893 216.133C269.523 216.133 266.789 212.926 266.789 208.97C266.789 205.014 269.521 201.807 272.893 201.807C276.266 201.805 278.998 205.012 278.998 208.97Z" fill="#F9F8E8"/>
<path d="M233.653 229.789C229.275 246.354 212.505 258.56 195.376 258.228C186.404 258.053 177.694 254.537 170.749 248.925C167.524 246.319 164.808 243.512 162.965 239.824C162.276 238.443 159.106 231.635 158.509 229.724C171.505 231.857 183.98 232.321 197.112 232.24C209.327 232.163 221.538 231.346 233.653 229.789Z" fill="#2B2B2B" stroke="#2B2B2B" stroke-width="0.5" stroke-miterlimit="10" stroke-linecap="round" stroke-linejoin="round"/>
<path d="M199.626 239.589C193.781 239.335 187.851 239.408 182.182 240.861C177.692 242.012 173.239 244.094 169.861 247.325C169.702 247.479 169.566 247.63 169.431 247.781C169.869 248.164 170.295 248.553 170.755 248.926C177.7 254.538 186.409 258.055 195.381 258.228C205.208 258.419 214.901 254.471 222.22 247.956C221.803 247.396 221.342 246.87 220.851 246.388C215.424 241.06 207.223 239.917 199.626 239.589Z" fill="#F47A6E"/>
<path d="M109.068 234.9C104.397 230.642 98.6244 227.601 92.4707 226.159" stroke="#2B2B2B" stroke-width="0.5" stroke-miterlimit="10" stroke-linecap="round"/>
<path d="M97.0233 238.592C92.0658 235.494 85.7766 235.546 80 236.441" stroke="#2B2B2B" stroke-width="0.5" stroke-miterlimit="10" stroke-linecap="round"/>
<path d="M288.472 234.9C293.143 230.642 298.916 227.601 305.07 226.159" stroke="#2B2B2B" stroke-width="0.5" stroke-miterlimit="10" stroke-linecap="round"/>
<path d="M300.522 238.592C305.479 235.494 311.769 235.546 317.545 236.441" stroke="#2B2B2B" stroke-width="0.5" stroke-miterlimit="10" stroke-linecap="round"/>
<path d="M232.534 313.426C233.825 308.873 231.854 302.627 221.47 299.64C205.681 295.032 194.277 312.346 192.986 314.524C194.43 312.004 208.196 289.201 224.138 293.772C236.749 297.372 236.035 307.685 232.534 313.426Z" fill="#7B1FA2"/>
<path d="M232.541 313.427C231.602 315.163 230.143 316.518 228.394 317.278C222.854 319.078 210.243 320.194 193.945 315.1L192.857 314.74L192.993 314.525V314.399H193.129C210.277 317.044 222.225 315.1 227.12 313.229C228.202 312.665 229.117 311.795 229.762 310.715C230.406 309.635 230.757 308.387 230.774 307.109C230.824 306.43 230.79 305.746 230.672 305.075C231.642 306.175 232.325 307.524 232.653 308.988C232.98 310.453 232.942 311.983 232.541 313.427Z" fill="#7B1FA2"/>
<path opacity="0.2" d="M232.541 313.427C231.602 315.163 230.143 316.518 228.394 317.278C222.854 319.078 210.243 320.194 193.945 315.1L192.857 314.74L192.993 314.525V314.399H193.129C210.277 317.044 222.225 315.1 227.12 313.229C228.202 312.665 229.117 311.795 229.762 310.715C230.406 309.635 230.757 308.387 230.774 307.109C230.824 306.43 230.79 305.746 230.672 305.075C231.642 306.175 232.325 307.524 232.653 308.988C232.98 310.453 232.942 311.983 232.541 313.427Z" fill="#E3D9D9"/>
<path d="M222.276 289.596C220.151 284.305 214.407 279.355 204.261 282.595C188.829 287.527 191.837 311.482 192.262 314.47C191.684 311.104 186.789 280.273 202.306 275.162C214.594 271.148 221.018 281.785 222.276 289.596Z" fill="#7B1FA2"/>
<path d="M222.27 289.597C222.751 291.707 222.541 293.928 221.675 295.896C218.599 301.025 209.558 309.719 193.395 314.452L192.307 314.776V314.47C192.307 314.47 192.307 314.362 192.307 314.29H192.426C207.552 306.587 215.523 297.48 218.055 292.692C219.041 290.892 218.548 287.419 216.713 284.431C216.28 283.734 215.791 283.077 215.251 282.469C216.821 283.081 218.255 284.03 219.463 285.257C220.671 286.483 221.627 287.961 222.27 289.597Z" fill="#7B1FA2"/>
<path opacity="0.2" d="M222.27 289.597C222.751 291.707 222.541 293.928 221.675 295.896C218.599 301.025 209.558 309.719 193.395 314.452L192.307 314.776V314.47C192.307 314.47 192.307 314.362 192.307 314.29H192.426C207.552 306.587 215.523 297.48 218.055 292.692C219.041 290.892 218.548 287.419 216.713 284.431C216.28 283.734 215.791 283.077 215.251 282.469C216.821 283.081 218.255 284.03 219.463 285.257C220.671 286.483 221.627 287.961 222.27 289.597Z" fill="#E3D9D9"/>
<path d="M151.943 313.426C150.651 308.873 152.605 302.627 162.99 299.64C178.778 295.032 190.182 312.346 191.491 314.524C190.029 312.004 176.28 289.201 160.321 293.772C147.728 297.372 148.425 307.685 151.943 313.426Z" fill="#7B1FA2"/>
<path d="M151.952 313.427C152.891 315.163 154.351 316.518 156.099 317.278C161.639 319.078 174.233 320.194 190.548 315.1L191.636 314.74L191.5 314.525L191.415 314.399H191.279C174.131 317.044 162.2 315.1 157.289 313.229C156.207 312.663 155.294 311.792 154.649 310.713C154.005 309.633 153.654 308.386 153.635 307.109C153.601 306.429 153.635 305.748 153.737 305.075C152.779 306.183 152.112 307.536 151.799 309C151.486 310.465 151.539 311.99 151.952 313.427Z" fill="#7B1FA2"/>
<path opacity="0.2" d="M151.952 313.427C152.891 315.163 154.351 316.518 156.099 317.278C161.639 319.078 174.233 320.194 190.548 315.1L191.636 314.74L191.5 314.525L191.415 314.399H191.279C174.131 317.044 162.2 315.1 157.289 313.229C156.207 312.663 155.294 311.792 154.649 310.713C154.005 309.633 153.654 308.386 153.635 307.109C153.601 306.429 153.635 305.748 153.737 305.075C152.779 306.183 152.112 307.536 151.799 309C151.486 310.465 151.539 311.99 151.952 313.427Z" fill="#E3D9D9"/>
<path d="M161.162 289.596C163.27 284.305 169.031 279.355 179.177 282.595C194.609 287.527 191.601 311.482 191.176 314.47C191.754 311.104 196.648 280.273 181.132 275.162C168.844 271.148 162.352 281.785 161.162 289.596Z" fill="#7B1FA2"/>
<path d="M161.151 289.597C160.67 291.707 160.88 293.928 161.746 295.896C164.822 301.025 173.863 309.719 190.026 314.452L191.114 314.776V314.47C191.114 314.47 191.114 314.362 191.114 314.29H190.995C175.869 306.587 167.898 297.48 165.366 292.692C164.38 290.892 164.873 287.419 166.708 284.431C167.136 283.73 167.625 283.073 168.17 282.469C166.6 283.081 165.166 284.03 163.958 285.257C162.75 286.483 161.794 287.961 161.151 289.597Z" fill="#7B1FA2"/>
<path opacity="0.2" d="M161.151 289.597C160.67 291.707 160.88 293.928 161.746 295.896C164.822 301.025 173.863 309.719 190.026 314.452L191.114 314.776V314.47C191.114 314.47 191.114 314.362 191.114 314.29H190.995C175.869 306.587 167.898 297.48 165.366 292.692C164.38 290.892 164.873 287.419 166.708 284.431C167.136 283.73 167.625 283.073 168.17 282.469C166.6 283.081 165.166 284.03 163.958 285.257C162.75 286.483 161.794 287.961 161.151 289.597Z" fill="#E3D9D9"/>
<path d="M230.922 395.803H147.356L143.94 319.455L234.61 322.694L230.922 395.803Z" fill="#FFC87C"/>
<path d="M260.238 395.804H230.921L232.144 322.695L263.824 326.421L260.238 395.804Z" fill="#F7B04D"/>
<path d="M137.143 317.853L139.182 348.756H232.147V311.536L137.143 317.853Z" fill="#F7B04D"/>
<path d="M265.478 347.82L232.15 348.756V311.536L268.571 319.455L265.478 347.82Z" fill="#FFC87C"/>
<path d="M256.096 316.738L249.978 395.517H242.619L246.698 314.704L256.096 316.738Z" fill="#7B1FA2"/>
<path opacity="0.1" d="M256.096 316.738L249.978 395.517H242.619L246.698 314.704L256.096 316.738Z" fill="#E3D9D9"/>
<path d="M195.713 314.019V395.803H176.372L174.18 315.477L195.713 314.019Z" fill="#7B1FA2"/>
<path d="M360.611 302.857C364.771 326.664 357.111 352.701 339.248 368.979C321.384 385.256 293.455 390.276 271.857 379.434C267.221 377.108 262.852 374.068 259.669 369.972C256.487 365.879 254.58 360.637 255.173 355.484C255.922 348.96 260.599 343.354 266.326 340.14C272.054 336.929 278.723 335.815 285.279 335.44C294.544 334.914 303.882 335.755 313.096 334.625C322.307 333.495 331.756 330.037 337.468 322.72" fill="#E54E4E"/>
<path d="M354.021 338.268C342.519 359.73 320.261 373.45 295.94 374.506C283.591 375.043 271.908 369.128 264.531 359.314C261.78 355.653 259.742 351.572 258.407 347.285C256.703 349.741 255.516 352.508 255.173 355.484C254.58 360.637 256.487 365.879 259.669 369.972C262.852 374.068 267.221 377.105 271.857 379.434C293.455 390.276 321.384 385.256 339.248 368.979C353.694 355.814 361.462 336.263 361.706 316.673C360.157 324.177 357.66 331.475 354.021 338.268Z" fill="#E54E4E"/>
<path d="M360.611 302.857C364.771 326.664 357.111 352.701 339.248 368.979C321.384 385.256 293.455 390.276 271.857 379.434C267.221 377.108 262.852 374.068 259.669 369.972C256.487 365.879 254.58 360.637 255.173 355.484C255.922 348.96 260.599 343.354 266.326 340.14C272.054 336.929 278.723 335.815 285.279 335.44C294.544 334.914 303.882 335.755 313.096 334.625C322.307 333.495 331.756 330.037 337.468 322.72" stroke="#A71414" stroke-width="0.3" stroke-miterlimit="10" stroke-linecap="round" stroke-linejoin="round"/>
<path d="M46.8213 302.86C42.6616 326.667 50.3211 352.704 68.1849 368.981C86.0488 385.259 113.977 390.278 135.576 379.436C140.211 377.111 144.581 374.071 147.763 369.975C150.946 365.881 152.849 360.64 152.259 355.487C151.51 348.963 146.833 343.356 141.106 340.142C135.379 336.931 128.709 335.818 122.154 335.443C112.889 334.916 103.548 335.757 94.3366 334.628C85.1254 333.498 75.6763 330.04 69.965 322.723" fill="#E54E4E"/>
<path d="M53.4049 338.271C64.9069 359.733 87.1653 373.453 111.486 374.509C123.835 375.045 135.518 369.131 142.895 359.317C145.646 355.655 147.683 351.575 149.019 347.288C150.723 349.744 151.91 352.511 152.252 355.487C152.846 360.64 150.939 365.882 147.756 369.975C144.574 374.071 140.205 377.108 135.569 379.437C113.971 390.279 86.0421 385.259 68.1783 368.982C53.7317 355.817 45.9643 336.265 45.72 316.676C47.2684 324.18 49.7655 331.477 53.4049 338.271Z" fill="#E54E4E"/>
<path d="M46.8213 302.86C42.6616 326.667 50.3211 352.704 68.1849 368.981C86.0488 385.259 113.977 390.278 135.576 379.436C140.211 377.111 144.581 374.071 147.763 369.975C150.946 365.881 152.849 360.64 152.259 355.487C151.51 348.963 146.833 343.356 141.106 340.142C135.379 336.931 128.709 335.818 122.154 335.443C112.889 334.916 103.548 335.757 94.3366 334.628C85.1254 333.498 75.6763 330.04 69.965 322.723" stroke="#A71414" stroke-width="0.3" stroke-miterlimit="10" stroke-linecap="round" stroke-linejoin="round"/>
</svg>
